# xmcd
#
# Track frame offsets:
#	150
#	27542
#	50537
#	69960
#	98675
#	115607
#	139822
#	167172
#
# Disc length: 2931 seconds
#
# Revision: 1
# Processed by: cddbd v1.5PL3 Copyright (c) Steve Scherf et al.
# Submitted via: CDex 1.50Beta5
#
DISCID=660b7108
DTITLE=笠原弘子 - piece of heart
DYEAR=1999
DGENRE=Pop
TTITLE0=今日街にでかけた
TTITLE1=元気だしてよ
TTITLE2=明日はお休み
TTITLE3=凍りつきそうな夜に凍えそうな両手をひらいて
TTITLE4=儚の中で
TTITLE5=my prayer
TTITLE6=missing you
TTITLE7=piece of heart story
EXTD=
EXTT0=
EXTT1=
EXTT2=
EXTT3=
EXTT4=
EXTT5=
EXTT6=
EXTT7=
PLAYORDER=
